<?xml version="1.0" encoding="UTF-8" standalone="no"?>
<!DOCTYPE svg PUBLIC "-//W3C//DTD SVG 1.1//EN"
 "http://www.w3.org/Graphics/SVG/1.1/DTD/svg11.dtd">
<!-- Generated by graphviz version 2.43.0 (0)
 -->
<!-- Title: %3 Pages: 1 -->
<svg width="363pt" height="235pt"
 viewBox="0.00 0.00 363.42 235.28" xmlns="http://www.w3.org/2000/svg" xmlns:xlink="http://www.w3.org/1999/xlink">
<g id="graph0" class="graph" transform="scale(1 1) rotate(0) translate(8.64 226.64)">
<title>%3</title>
<!-- gene_n1 -->
<g id="node1" class="node">
<title>gene_n1</title>
<ellipse fill="none" stroke="black" cx="17.5" cy="-208" rx="17.5" ry="10"/>
<text text-anchor="middle" x="17.5" y="-206.7" font-family="Liberation Sans" font-size="6.00">gene_n1</text>
</g>
<!-- gene_n2 -->
<g id="node2" class="node">
<title>gene_n2</title>
<ellipse fill="none" stroke="black" cx="17.5" cy="-175" rx="17.5" ry="10"/>
<text text-anchor="middle" x="17.5" y="-173.7" font-family="Liberation Sans" font-size="6.00">gene_n2</text>
</g>
<!-- gene_n1&#45;&gt;gene_n2 -->
<!-- tf_nfkb -->
<g id="node9" class="node">
<title>tf_nfkb</title>
<ellipse fill="none" stroke="black" cx="92.5" cy="-119" rx="17.5" ry="10"/>
<text text-anchor="middle" x="92.5" y="-117.7" font-family="Liberation Sans" font-size="6.00">tf_nfkb</text>
</g>
<!-- gene_n1&#45;&gt;tf_nfkb -->
<g id="edge20" class="edge">
<title>gene_n1&#45;&gt;tf_nfkb</title>
<path fill="none" stroke="black" stroke-width="0.8" d="M27.88,-199.48C30.29,-197.14 32.81,-194.54 35,-192 54.95,-168.81 55.4,-159.48 75,-136 76.36,-134.37 77.85,-132.7 79.35,-131.08"/>
<polygon fill="black" stroke="black" stroke-width="0.8" points="80.66,-132.24 82.85,-127.41 78.13,-129.83 80.66,-132.24"/>
</g>
<!-- gene_n3 -->
<g id="node3" class="node">
<title>gene_n3</title>
<ellipse fill="none" stroke="black" cx="17.5" cy="-142" rx="17.5" ry="10"/>
<text text-anchor="middle" x="17.5" y="-140.7" font-family="Liberation Sans" font-size="6.00">gene_n3</text>
</g>
<!-- gene_n2&#45;&gt;gene_n3 -->
<!-- gene_n2&#45;&gt;tf_nfkb -->
<g id="edge21" class="edge">
<title>gene_n2&#45;&gt;tf_nfkb</title>
<path fill="none" stroke="black" stroke-width="0.8" d="M28.65,-167.21C41.15,-157.63 62.47,-141.27 76.77,-130.3"/>
<polygon fill="black" stroke="black" stroke-width="0.8" points="78.06,-131.51 80.96,-127.08 75.93,-128.74 78.06,-131.51"/>
</g>
<!-- gene_s1 -->
<g id="node4" class="node">
<title>gene_s1</title>
<ellipse fill="none" stroke="black" cx="17.5" cy="-109" rx="17.5" ry="10"/>
<text text-anchor="middle" x="17.5" y="-107.7" font-family="Liberation Sans" font-size="6.00">gene_s1</text>
</g>
<!-- gene_n3&#45;&gt;gene_s1 -->
<!-- gene_n3&#45;&gt;tf_nfkb -->
<g id="edge22" class="edge">
<title>gene_n3&#45;&gt;tf_nfkb</title>
<path fill="none" stroke="black" stroke-width="0.8" d="M33.27,-137.35C44.35,-133.85 59.64,-129.04 71.77,-125.22"/>
<polygon fill="black" stroke="black" stroke-width="0.8" points="72.51,-126.82 76.75,-123.65 71.45,-123.48 72.51,-126.82"/>
</g>
<!-- gene_s2 -->
<g id="node5" class="node">
<title>gene_s2</title>
<ellipse fill="none" stroke="black" cx="17.5" cy="-76" rx="17.5" ry="10"/>
<text text-anchor="middle" x="17.5" y="-74.7" font-family="Liberation Sans" font-size="6.00">gene_s2</text>
</g>
<!-- gene_s1&#45;&gt;gene_s2 -->
<!-- tf_myc -->
<g id="node8" class="node">
<title>tf_myc</title>
<ellipse fill="none" stroke="black" cx="92.5" cy="-152" rx="17.5" ry="10"/>
<text text-anchor="middle" x="92.5" y="-150.7" font-family="Liberation Sans" font-size="6.00">tf_myc</text>
</g>
<!-- gene_s1&#45;&gt;tf_myc -->
<g id="edge12" class="edge">
<title>gene_s1&#45;&gt;tf_myc</title>
<path fill="none" stroke="black" stroke-width="0.8" d="M30.23,-115.91C42.4,-123.08 61.51,-134.34 75.16,-142.37"/>
<polygon fill="black" stroke="black" stroke-width="0.8" points="74.36,-143.94 79.56,-144.97 76.14,-140.92 74.36,-143.94"/>
</g>
<!-- tf_stat -->
<g id="node10" class="node">
<title>tf_stat</title>
<ellipse fill="none" stroke="black" cx="92.5" cy="-59" rx="17.5" ry="10"/>
<text text-anchor="middle" x="92.5" y="-57.7" font-family="Liberation Sans" font-size="6.00">tf_stat</text>
</g>
<!-- gene_s1&#45;&gt;tf_stat -->
<g id="edge13" class="edge">
<title>gene_s1&#45;&gt;tf_stat</title>
<path fill="none" stroke="black" stroke-width="0.8" d="M29.59,-101.41C41.91,-92.96 61.92,-79.26 75.84,-69.73"/>
<polygon fill="black" stroke="black" stroke-width="0.8" points="77.17,-70.93 80.31,-66.67 75.19,-68.05 77.17,-70.93"/>
</g>
<!-- kin_mapk -->
<g id="node12" class="node">
<title>kin_mapk</title>
<ellipse fill="none" stroke="black" cx="168.56" cy="-86" rx="18.62" ry="10"/>
<text text-anchor="middle" x="168.56" y="-84.7" font-family="Liberation Sans" font-size="6.00">kin_mapk</text>
</g>
<!-- gene_s1&#45;&gt;kin_mapk -->
<g id="edge33" class="edge">
<title>gene_s1&#45;&gt;kin_mapk</title>
<path fill="none" stroke="black" stroke-width="0.8" stroke-dasharray="5,2" d="M34.74,-106.49C61.56,-102.36 115.15,-94.09 145.42,-89.42"/>
<polygon fill="black" stroke="black" stroke-width="0.8" points="145.75,-91.14 150.43,-88.64 145.22,-87.68 145.75,-91.14"/>
</g>
<!-- gene_s3 -->
<g id="node6" class="node">
<title>gene_s3</title>
<ellipse fill="none" stroke="black" cx="17.5" cy="-43" rx="17.5" ry="10"/>
<text text-anchor="middle" x="17.5" y="-41.7" font-family="Liberation Sans" font-size="6.00">gene_s3</text>
</g>
<!-- gene_s2&#45;&gt;gene_s3 -->
<!-- gene_s2&#45;&gt;tf_myc -->
<g id="edge14" class="edge">
<title>gene_s2&#45;&gt;tf_myc</title>
<path fill="none" stroke="black" stroke-width="0.8" d="M26.93,-84.61C29.53,-87.29 32.39,-90.26 35,-93 52.98,-111.92 56.74,-117.35 75,-136 76.23,-137.25 77.52,-138.55 78.82,-139.84"/>
<polygon fill="black" stroke="black" stroke-width="0.8" points="77.89,-141.37 82.68,-143.61 80.33,-138.87 77.89,-141.37"/>
</g>
<!-- gene_s2&#45;&gt;tf_stat -->
<g id="edge15" class="edge">
<title>gene_s2&#45;&gt;tf_stat</title>
<path fill="none" stroke="black" stroke-width="0.8" d="M33.98,-72.39C44.72,-69.89 59.15,-66.53 70.87,-63.8"/>
<polygon fill="black" stroke="black" stroke-width="0.8" points="71.57,-65.44 76.04,-62.6 70.77,-62.03 71.57,-65.44"/>
</g>
<!-- gene_s4 -->
<g id="node7" class="node">
<title>gene_s4</title>
<ellipse fill="none" stroke="black" cx="17.5" cy="-10" rx="17.5" ry="10"/>
<text text-anchor="middle" x="17.5" y="-8.7" font-family="Liberation Sans" font-size="6.00">gene_s4</text>
</g>
<!-- gene_s3&#45;&gt;gene_s4 -->
<!-- gene_s3&#45;&gt;tf_myc -->
<g id="edge16" class="edge">
<title>gene_s3&#45;&gt;tf_myc</title>
<path fill="none" stroke="black" stroke-width="0.8" d="M27.75,-51.57C30.26,-54.15 32.88,-57.07 35,-60 57.41,-90.9 52.12,-105.44 75,-136 76,-137.34 77.12,-138.67 78.29,-139.96"/>
<polygon fill="black" stroke="black" stroke-width="0.8" points="77.15,-141.3 81.88,-143.67 79.66,-138.86 77.15,-141.3"/>
</g>
<!-- gene_s3&#45;&gt;tf_stat -->
<g id="edge17" class="edge">
<title>gene_s3&#45;&gt;tf_stat</title>
<path fill="none" stroke="black" stroke-width="0.8" d="M33.98,-46.39C44.65,-48.73 58.96,-51.87 70.63,-54.43"/>
<polygon fill="black" stroke="black" stroke-width="0.8" points="70.53,-56.2 75.79,-55.56 71.28,-52.78 70.53,-56.2"/>
</g>
<!-- gene_s4&#45;&gt;tf_myc -->
<g id="edge18" class="edge">
<title>gene_s4&#45;&gt;tf_myc</title>
<path fill="none" stroke="black" stroke-width="0.8" d="M28.37,-18.15C30.77,-20.5 33.18,-23.19 35,-26 63.28,-69.66 46.72,-92.34 75,-136 75.91,-137.41 76.97,-138.78 78.1,-140.1"/>
<polygon fill="black" stroke="black" stroke-width="0.8" points="76.93,-141.41 81.63,-143.85 79.47,-139.01 76.93,-141.41"/>
</g>
<!-- gene_s4&#45;&gt;tf_stat -->
<g id="edge19" class="edge">
<title>gene_s4&#45;&gt;tf_stat</title>
<path fill="none" stroke="black" stroke-width="0.8" d="M29.59,-17.44C41.91,-25.72 61.92,-39.14 75.84,-48.49"/>
<polygon fill="black" stroke="black" stroke-width="0.8" points="75.18,-50.15 80.31,-51.49 77.13,-47.25 75.18,-50.15"/>
</g>
<!-- tf_myc&#45;&gt;tf_nfkb -->
<!-- tf_myc&#45;&gt;kin_mapk -->
<g id="edge23" class="edge">
<title>tf_myc&#45;&gt;kin_mapk</title>
<path fill="none" stroke="black" stroke-width="0.8" d="M102.88,-143.64C115.83,-132.1 139.26,-111.22 154.09,-98.01"/>
<polygon fill="black" stroke="black" stroke-width="0.8" points="155.45,-99.13 158.02,-94.5 153.12,-96.52 155.45,-99.13"/>
</g>
<!-- proc_prolif -->
<g id="node15" class="node">
<title>proc_prolif</title>
<ellipse fill="none" stroke="black" cx="247.47" cy="-86" rx="20.21" ry="10"/>
<text text-anchor="middle" x="247.47" y="-84.7" font-family="Liberation Sans" font-size="6.00">proc_prolif</text>
</g>
<!-- tf_myc&#45;&gt;proc_prolif -->
<g id="edge34" class="edge">
<title>tf_myc&#45;&gt;proc_prolif</title>
<path fill="none" stroke="black" stroke-width="0.8" stroke-dasharray="5,2" d="M110.17,-151.76C129.53,-150.91 161.99,-147.67 187.12,-136 189.75,-134.78 215.75,-112.53 232.46,-98.13"/>
<polygon fill="black" stroke="black" stroke-width="0.8" points="233.84,-99.24 236.48,-94.65 231.56,-96.59 233.84,-99.24"/>
</g>
<!-- tf_nfkb&#45;&gt;tf_stat -->
<!-- kin_ikk -->
<g id="node11" class="node">
<title>kin_ikk</title>
<ellipse fill="none" stroke="black" cx="168.56" cy="-119" rx="17.5" ry="10"/>
<text text-anchor="middle" x="168.56" y="-117.7" font-family="Liberation Sans" font-size="6.00">kin_ikk</text>
</g>
<!-- tf_nfkb&#45;&gt;kin_ikk -->
<g id="edge26" class="edge">
<title>tf_nfkb&#45;&gt;kin_ikk</title>
<path fill="none" stroke="black" stroke-width="0.8" d="M110.31,-119C120.82,-119 134.46,-119 145.8,-119"/>
<polygon fill="black" stroke="black" stroke-width="0.8" points="145.82,-120.75 150.82,-119 145.82,-117.25 145.82,-120.75"/>
</g>
<!-- phenotype -->
<g id="node16" class="node">
<title>phenotype</title>
<ellipse fill="none" stroke="black" cx="326.99" cy="-119" rx="19.32" ry="10"/>
<text text-anchor="middle" x="326.99" y="-117.7" font-family="Liberation Sans" font-size="6.00">phenotype</text>
</g>
<!-- tf_nfkb&#45;&gt;phenotype -->
<g id="edge35" class="edge">
<title>tf_nfkb&#45;&gt;phenotype</title>
<path fill="none" stroke="black" stroke-width="0.8" stroke-dasharray="5,2" d="M107.63,-124.51C118.91,-128.6 135.2,-133.82 150,-136 201.81,-143.63 215.99,-143.42 267.83,-136 280.83,-134.14 294.99,-130.05 306.08,-126.35"/>
<polygon fill="black" stroke="black" stroke-width="0.8" points="306.78,-127.96 310.94,-124.68 305.64,-124.64 306.78,-127.96"/>
</g>
<!-- tf_stat&#45;&gt;kin_mapk -->
<g id="edge24" class="edge">
<title>tf_stat&#45;&gt;kin_mapk</title>
<path fill="none" stroke="black" stroke-width="0.8" d="M107.78,-64.21C119.21,-68.37 135.36,-74.26 147.99,-78.87"/>
<polygon fill="black" stroke="black" stroke-width="0.8" points="147.52,-80.56 152.82,-80.63 148.72,-77.27 147.52,-80.56"/>
</g>
<!-- kin_pi3k -->
<g id="node13" class="node">
<title>kin_pi3k</title>
<ellipse fill="none" stroke="black" cx="168.56" cy="-53" rx="17.5" ry="10"/>
<text text-anchor="middle" x="168.56" y="-51.7" font-family="Liberation Sans" font-size="6.00">kin_pi3k</text>
</g>
<!-- tf_stat&#45;&gt;kin_pi3k -->
<g id="edge25" class="edge">
<title>tf_stat&#45;&gt;kin_pi3k</title>
<path fill="none" stroke="black" stroke-width="0.8" d="M109.94,-57.67C120.58,-56.81 134.55,-55.67 146.07,-54.74"/>
<polygon fill="black" stroke="black" stroke-width="0.8" points="146.33,-56.48 151.17,-54.33 146.04,-52.99 146.33,-56.48"/>
</g>
<!-- kin_ikk&#45;&gt;kin_mapk -->
<!-- proc_apop -->
<g id="node14" class="node">
<title>proc_apop</title>
<ellipse fill="none" stroke="black" cx="247.47" cy="-119" rx="19.52" ry="10"/>
<text text-anchor="middle" x="247.47" y="-117.7" font-family="Liberation Sans" font-size="6.00">proc_apop</text>
</g>
<!-- kin_ikk&#45;&gt;proc_apop -->
<g id="edge30" class="edge">
<title>kin_ikk&#45;&gt;proc_apop</title>
<path fill="none" stroke="black" stroke-width="0.8" d="M186.25,-119C196.82,-119 210.67,-119 222.42,-119"/>
<polygon fill="black" stroke="black" stroke-width="0.8" points="222.66,-120.75 227.66,-119 222.66,-117.25 222.66,-120.75"/>
</g>
<!-- kin_mapk&#45;&gt;kin_pi3k -->
<!-- kin_mapk&#45;&gt;proc_prolif -->
<g id="edge27" class="edge">
<title>kin_mapk&#45;&gt;proc_prolif</title>
<path fill="none" stroke="black" stroke-width="0.8" d="M187.4,-86C197.71,-86 210.83,-86 222.09,-86"/>
<polygon fill="black" stroke="black" stroke-width="0.8" points="222.11,-87.75 227.11,-86 222.11,-84.25 222.11,-87.75"/>
</g>
<!-- kin_pi3k&#45;&gt;proc_apop -->
<g id="edge29" class="edge">
<title>kin_pi3k&#45;&gt;proc_apop</title>
<path fill="none" stroke="black" stroke-width="0.8" d="M178.87,-61.21C190.2,-71.18 209.95,-88.45 227.12,-103 228.76,-104.4 230.5,-105.85 232.22,-107.29"/>
<polygon fill="black" stroke="black" stroke-width="0.8" points="231.22,-108.73 236.19,-110.58 233.46,-106.04 231.22,-108.73"/>
</g>
<!-- kin_pi3k&#45;&gt;proc_prolif -->
<g id="edge28" class="edge">
<title>kin_pi3k&#45;&gt;proc_prolif</title>
<path fill="none" stroke="black" stroke-width="0.8" d="M182.96,-58.75C195.07,-63.95 213.06,-71.66 226.8,-77.56"/>
<polygon fill="black" stroke="black" stroke-width="0.8" points="226.37,-79.28 231.66,-79.64 227.75,-76.06 226.37,-79.28"/>
</g>
<!-- proc_apop&#45;&gt;proc_prolif -->
<!-- proc_apop&#45;&gt;phenotype -->
<g id="edge32" class="edge">
<title>proc_apop&#45;&gt;phenotype</title>
<path fill="none" stroke="black" stroke-width="0.8" d="M267.24,-119C277.88,-119 291.3,-119 302.63,-119"/>
<polygon fill="black" stroke="black" stroke-width="0.8" points="302.66,-120.75 307.66,-119 302.66,-117.25 302.66,-120.75"/>
</g>
<!-- proc_prolif&#45;&gt;phenotype -->
<g id="edge31" class="edge">
<title>proc_prolif&#45;&gt;phenotype</title>
<path fill="none" stroke="black" stroke-width="0.8" d="M263.42,-92.36C275.8,-97.63 293.47,-105.16 306.88,-110.87"/>
<polygon fill="black" stroke="black" stroke-width="0.8" points="306.33,-112.53 311.61,-112.88 307.7,-109.31 306.33,-112.53"/>
</g>
</g>
</svg>
