<svg xmlns="http://www.w3.org/2000/svg"
     viewBox="0 0 320 108"
     font-family="Liberation Sans, sans-serif"
     font-size="6"
     fill="none">
  <text x="30" y="12" text-anchor="middle" fill="#000">layer 0</text>
  <text x="110" y="12" text-anchor="middle" fill="#000">layer 1</text>
  <text x="196" y="12" text-anchor="middle" fill="#000">layer 2</text>
  <text x="282" y="12" text-anchor="middle" fill="#000">layer 3</text>

  <rect x="12" y="18" width="36" height="16" stroke="#000" stroke-width="0.6"/>
  <text x="30" y="28.5" text-anchor="middle" fill="#000">A</text>
  <rect x="12" y="46" width="36" height="16" stroke="#000" stroke-width="0.6"/>
  <text x="30" y="56.5" text-anchor="middle" fill="#000">B</text>

  <rect x="92" y="32" width="36" height="16" stroke="#000" stroke-width="0.6"/>
  <text x="110" y="42.5" text-anchor="middle" fill="#000">H1</text>
  <rect x="178" y="32" width="36" height="16" stroke="#000" stroke-width="0.6"/>
  <text x="196" y="42.5" text-anchor="middle" fill="#000">H2</text>
  <rect x="264" y="32" width="36" height="16" stroke="#000" stroke-width="0.6"/>
  <text x="282" y="42.5" text-anchor="middle" fill="#000">C</text>

  <line x1="48" y1="26" x2="92" y2="40" stroke="#000" stroke-width="0.6"
        marker-end="url(#arrow)"/>
  <line x1="48" y1="54" x2="92" y2="40" stroke="#000" stroke-width="0.6"
        marker-end="url(#arrow)"/>
  <text x="70" y="24" text-anchor="middle" fill="#000">mask[0]</text>

  <line x1="128" y1="40" x2="178" y2="40" stroke="#000" stroke-width="0.6"
        marker-end="url(#arrow)"/>
  <text x="153" y="36" text-anchor="middle" fill="#000">mask[1]</text>

  <line x1="214" y1="40" x2="264" y2="40" stroke="#000" stroke-width="0.6"
        marker-end="url(#arrow)"/>
  <text x="239" y="36" text-anchor="middle" fill="#000">mask[2]</text>

  <path d="M30 34 C30 72, 196 72, 196 48"
        stroke="#000" stroke-width="0.6" stroke-dasharray="2 1.2"
        marker-end="url(#arrow)"/>
  <path d="M110 48 C110 80, 282 80, 282 48"
        stroke="#000" stroke-width="0.6" stroke-dasharray="2 1.2"
        marker-end="url(#arrow)"/>
  <path d="M18 26 C8 96, 282 96, 282 48"
        stroke="#000" stroke-width="0.6" stroke-dasharray="2 1.2"
        marker-end="url(#arrow)"/>
  <text x="160" y="106" text-anchor="middle" fill="#000">
    dashed: SkipAdd into the target pre-activation (not in masks)
  </text>

  <defs>
    <marker id="arrow" viewBox="0 0 10 10" refX="8" refY="5"
            markerWidth="5" markerHeight="5" orient="auto-start-reverse">
      <path d="M 0 0 L 10 5 L 0 10 z" fill="#000"/>
    </marker>
  </defs>
</svg>
